<svg width="129" height="129" viewBox="0 0 129 129" fill="none" xmlns="http://www.w3.org/2000/svg">
<path opacity="0.9" d="M26.655 81.349V107.628C26.655 109.246 28.0285 109.917 28.4558 110.07C28.8831 110.253 30.3176 110.65 31.5995 109.459L54.0939 87.9112C56.1694 85.2253 56.9325 83.5465 56.9325 83.5465C58.1534 81.0743 58.1533 78.6936 56.963 76.3129C55.1927 72.7724 50.6756 69.1709 43.8693 65.7524L32.2405 72.2231C28.7916 74.1764 26.655 77.6253 26.655 81.349Z" fill="#A9D6FF"/>
<g filter="url(#filter0_d_2355_5337)">
<path d="M15 22.9005V50.4615C15 53.9105 17.3197 56.9626 20.6161 57.9393C31.848 61.1746 51.4123 68.1336 56.1431 78.3583C56.7536 79.7012 57.1199 81.0137 57.242 82.3872C60.3857 76.6796 61.8202 70.1174 61.1487 63.4637C60.2331 54.0326 55.2275 45.456 47.414 39.9926L19.5478 20.5504C19.0594 20.1841 18.4795 20.001 17.8996 20.001C17.4112 20.001 16.9839 20.0925 16.5261 20.3367C15.6104 20.8556 15 21.8018 15 22.9005Z" fill="url(#paint0_linear_2355_5337)"/>
</g>
<path opacity="0.9" d="M100.839 81.349V107.628C100.839 109.246 99.4651 109.917 99.0378 110.07C98.6105 110.253 97.176 110.65 95.894 109.459L73.3996 87.9112C71.3242 85.2253 70.5611 83.5465 70.5611 83.5465C69.3402 81.0743 69.3403 78.6936 70.5306 76.3129C72.3009 72.7724 76.818 69.1709 83.6243 65.7524L95.253 72.2231C98.7325 74.1764 100.839 77.6253 100.839 81.349Z" fill="#A9D6FF"/>
<g filter="url(#filter1_d_2355_5337)">
<path d="M112.515 22.8996V50.4606C112.515 53.9095 110.196 56.9617 106.899 57.9384C95.6673 61.1736 76.103 68.1326 71.3721 78.3573C70.7617 79.7003 70.3954 81.0127 70.2733 82.3862C67.1296 76.6786 65.6951 70.1165 66.3666 63.4628C67.2822 54.0316 72.2878 45.455 80.1013 39.9917L107.968 20.5494C108.456 20.1831 109.036 20 109.616 20C110.104 20 110.531 20.0916 110.989 20.3357C111.905 20.8546 112.515 21.8008 112.515 22.8996Z" fill="url(#paint1_linear_2355_5337)"/>
</g>
<defs>
<filter id="filter0_d_2355_5337" x="5" y="14.001" width="66.311" height="82.3862" filterUnits="userSpaceOnUse" color-interpolation-filters="sRGB">
<feFlood flood-opacity="0" result="BackgroundImageFix"/>
<feColorMatrix in="SourceAlpha" type="matrix" values="0 0 0 0 0 0 0 0 0 0 0 0 0 0 0 0 0 0 127 0" result="hardAlpha"/>
<feOffset dy="4"/>
<feGaussianBlur stdDeviation="5"/>
<feComposite in2="hardAlpha" operator="out"/>
<feColorMatrix type="matrix" values="0 0 0 0 0 0 0 0 0 0 0 0 0 0 0 0 0 0 0.2 0"/>
<feBlend mode="normal" in2="BackgroundImageFix" result="effect1_dropShadow_2355_5337"/>
<feBlend mode="normal" in="SourceGraphic" in2="effect1_dropShadow_2355_5337" result="shape"/>
</filter>
<filter id="filter1_d_2355_5337" x="56.2043" y="14" width="66.3108" height="82.3862" filterUnits="userSpaceOnUse" color-interpolation-filters="sRGB">
<feFlood flood-opacity="0" result="BackgroundImageFix"/>
<feColorMatrix in="SourceAlpha" type="matrix" values="0 0 0 0 0 0 0 0 0 0 0 0 0 0 0 0 0 0 127 0" result="hardAlpha"/>
<feOffset dy="4"/>
<feGaussianBlur stdDeviation="5"/>
<feComposite in2="hardAlpha" operator="out"/>
<feColorMatrix type="matrix" values="0 0 0 0 0 0 0 0 0 0 0 0 0 0 0 0 0 0 0.2 0"/>
<feBlend mode="normal" in2="BackgroundImageFix" result="effect1_dropShadow_2355_5337"/>
<feBlend mode="normal" in="SourceGraphic" in2="effect1_dropShadow_2355_5337" result="shape"/>
</filter>
<linearGradient id="paint0_linear_2355_5337" x1="62.797" y1="81.9864" x2="15" y2="81.9864" gradientUnits="userSpaceOnUse">
<stop offset="0.0677083" stop-color="#EFFDFF"/>
<stop offset="1" stop-color="#A9D6FF"/>
</linearGradient>
<linearGradient id="paint1_linear_2355_5337" x1="66.334" y1="81.9854" x2="112.149" y2="81.9854" gradientUnits="userSpaceOnUse">
<stop offset="0.0677083" stop-color="#EFFDFF"/>
<stop offset="1" stop-color="#A9D6FF"/>
</linearGradient>
</defs>
</svg>
