<svg width="224" height="159" viewBox="0 0 224 159" fill="none" xmlns="http://www.w3.org/2000/svg">
<path d="M0 102.463H7.53246L21.7469 133.996L35.9614 102.463H43.4939V145.513H36.2044V117.552L23.5693 145.513H19.9246L7.28948 117.552V145.513H0V102.463Z" fill="white"/>
<path d="M66.6342 146.436C63.2324 146.436 60.2356 145.82 57.6438 144.589C55.0925 143.316 53.1081 141.509 51.6907 139.169C50.2733 136.788 49.5646 133.975 49.5646 130.732C49.5646 127.57 50.2531 124.819 51.63 122.479C53.0474 120.098 55.052 118.271 57.6438 116.998C60.2356 115.684 63.2324 115.027 66.6342 115.027C70.0359 115.027 73.0125 115.684 75.5638 116.998C78.1556 118.271 80.1602 120.098 81.5776 122.479C82.995 124.819 83.7037 127.57 83.7037 130.732C83.7037 133.975 82.995 136.788 81.5776 139.169C80.1602 141.509 78.1556 143.316 75.5638 144.589C73.0125 145.82 70.0359 146.436 66.6342 146.436ZM66.6342 140.339C69.4285 140.339 71.6558 139.457 73.3162 137.691C74.9766 135.884 75.8068 133.565 75.8068 130.732C75.8068 127.735 74.9766 125.394 73.3162 123.711C71.6963 121.986 69.469 121.124 66.6342 121.124C63.7994 121.124 61.5518 121.986 59.8914 123.711C58.2715 125.394 57.4616 127.735 57.4616 130.732C57.4616 133.565 58.2918 135.884 59.9521 137.691C61.6125 139.457 63.8399 140.339 66.6342 140.339Z" fill="white"/>
<path d="M89.754 115.951H97.165V120.693C98.3394 119.092 99.9998 117.901 102.146 117.121C104.333 116.341 106.824 115.951 109.618 115.951V121.863C106.662 121.863 104.09 122.335 101.903 123.28C99.7568 124.183 98.2584 125.62 97.408 127.591V145.513H89.754V115.951Z" fill="white"/>
<path d="M114.491 115.951H121.902V119.523C123.482 118.004 125.203 116.875 127.066 116.136C128.928 115.397 131.055 115.027 133.444 115.027C136.4 115.027 139.033 115.684 141.341 116.998C143.69 118.271 145.512 120.098 146.808 122.479C148.144 124.819 148.813 127.55 148.813 130.67C148.813 133.749 148.144 136.48 146.808 138.861C145.512 141.243 143.69 143.111 141.341 144.466C139.033 145.779 136.4 146.436 133.444 146.436C131.217 146.436 129.111 146.128 127.126 145.513C125.183 144.856 123.522 143.891 122.145 142.618V159H114.491V115.951ZM131.561 140.339C134.315 140.339 136.582 139.436 138.364 137.629C140.146 135.823 141.037 133.503 141.037 130.67C141.037 127.837 140.146 125.538 138.364 123.772C136.582 122.007 134.315 121.124 131.561 121.124C129.374 121.124 127.43 121.72 125.729 122.91C124.028 124.101 122.834 125.702 122.145 127.714V133.688C122.793 135.7 123.968 137.322 125.668 138.553C127.41 139.744 129.374 140.339 131.561 140.339Z" fill="white"/>
<path d="M154.889 100H162.543V119.708C165.297 116.587 168.861 115.027 173.235 115.027C177.163 115.027 180.099 116.115 182.043 118.291C183.987 120.426 184.959 123.28 184.959 126.852V145.513H177.305V127.591C177.305 123.28 175.32 121.124 171.352 121.124C169.61 121.124 167.97 121.555 166.431 122.418C164.892 123.239 163.596 124.491 162.543 126.174V145.513H154.889V100Z" fill="white"/>
<path d="M206.93 146.436C203.529 146.436 200.532 145.82 197.94 144.589C195.389 143.316 193.404 141.509 191.987 139.169C190.57 136.788 189.861 133.975 189.861 130.732C189.861 127.57 190.549 124.819 191.926 122.479C193.344 120.098 195.348 118.271 197.94 116.998C200.532 115.684 203.529 115.027 206.93 115.027C210.332 115.027 213.309 115.684 215.86 116.998C218.452 118.271 220.456 120.098 221.874 122.479C223.291 124.819 224 127.57 224 130.732C224 133.975 223.291 136.788 221.874 139.169C220.456 141.509 218.452 143.316 215.86 144.589C213.309 145.82 210.332 146.436 206.93 146.436ZM206.93 140.339C209.725 140.339 211.952 139.457 213.612 137.691C215.273 135.884 216.103 133.565 216.103 130.732C216.103 127.735 215.273 125.394 213.612 123.711C211.993 121.986 209.765 121.124 206.93 121.124C204.096 121.124 201.848 121.986 200.188 123.711C198.568 125.394 197.758 127.735 197.758 130.732C197.758 133.565 198.588 135.884 200.248 137.691C201.909 139.457 204.136 140.339 206.93 140.339Z" fill="white"/>
<path opacity="0.9" d="M83.9478 53.2486V73.4876C83.9478 74.7335 85.0022 75.2506 85.3302 75.3681C85.6582 75.5092 86.7595 75.8148 87.7437 74.898L105.013 58.3025C106.606 56.2339 107.192 54.9411 107.192 54.9411C108.129 53.037 108.129 51.2036 107.215 49.3701C105.856 46.6433 102.388 43.8695 97.1632 41.2368L88.2358 46.2202C85.588 47.7246 83.9478 50.3808 83.9478 53.2486Z" fill="#A9D6FF"/>
<g filter="url(#filter0_d_7102_22147)">
<path d="M75 8.23458V29.4609C75 32.1171 76.7809 34.4677 79.3115 35.2199C87.9343 37.7116 102.954 43.0711 106.586 50.9457C107.054 51.98 107.336 52.9908 107.429 54.0486C109.843 49.6529 110.944 44.599 110.429 39.4746C109.726 32.2111 105.883 25.6058 99.8843 21.3982L78.4913 6.42458C78.1164 6.1425 77.6712 6.00146 77.226 6.00146C76.8511 6.00146 76.523 6.07199 76.1716 6.26004C75.4686 6.65965 75 7.38835 75 8.23458Z" fill="url(#paint0_linear_7102_22147)"/>
</g>
<path opacity="0.9" d="M140.899 53.2486V73.4876C140.899 74.7335 139.845 75.2506 139.517 75.3681C139.188 75.5092 138.087 75.8148 137.103 74.898L119.834 58.3025C118.241 56.2339 117.655 54.9411 117.655 54.9411C116.718 53.037 116.718 51.2036 117.631 49.3701C118.99 46.6433 122.458 43.8695 127.684 41.2368L136.611 46.2202C139.282 47.7246 140.899 50.3808 140.899 53.2486Z" fill="#A9D6FF"/>
<g filter="url(#filter1_d_7102_22147)">
<path d="M149.864 8.23312V29.4594C149.864 32.1156 148.083 34.4663 145.552 35.2185C136.929 37.7101 121.91 43.0696 118.278 50.9443C117.809 51.9785 117.528 52.9893 117.434 54.0471C115.021 49.6514 113.92 44.5975 114.435 39.4731C115.138 32.2096 118.981 25.6044 124.979 21.3967L146.372 6.42312C146.747 6.14104 147.192 6 147.638 6C148.013 6 148.341 6.07052 148.692 6.25857C149.395 6.65818 149.864 7.38689 149.864 8.23312Z" fill="url(#paint1_linear_7102_22147)"/>
</g>
<defs>
<filter id="filter0_d_7102_22147" x="65" y="0.00146484" width="55.553" height="68.0474" filterUnits="userSpaceOnUse" color-interpolation-filters="sRGB">
<feFlood flood-opacity="0" result="BackgroundImageFix"/>
<feColorMatrix in="SourceAlpha" type="matrix" values="0 0 0 0 0 0 0 0 0 0 0 0 0 0 0 0 0 0 127 0" result="hardAlpha"/>
<feOffset dy="4"/>
<feGaussianBlur stdDeviation="5"/>
<feComposite in2="hardAlpha" operator="out"/>
<feColorMatrix type="matrix" values="0 0 0 0 0 0 0 0 0 0 0 0 0 0 0 0 0 0 0.2 0"/>
<feBlend mode="normal" in2="BackgroundImageFix" result="effect1_dropShadow_7102_22147"/>
<feBlend mode="normal" in="SourceGraphic" in2="effect1_dropShadow_7102_22147" result="shape"/>
</filter>
<filter id="filter1_d_7102_22147" x="104.311" y="0" width="55.553" height="68.0474" filterUnits="userSpaceOnUse" color-interpolation-filters="sRGB">
<feFlood flood-opacity="0" result="BackgroundImageFix"/>
<feColorMatrix in="SourceAlpha" type="matrix" values="0 0 0 0 0 0 0 0 0 0 0 0 0 0 0 0 0 0 127 0" result="hardAlpha"/>
<feOffset dy="4"/>
<feGaussianBlur stdDeviation="5"/>
<feComposite in2="hardAlpha" operator="out"/>
<feColorMatrix type="matrix" values="0 0 0 0 0 0 0 0 0 0 0 0 0 0 0 0 0 0 0.2 0"/>
<feBlend mode="normal" in2="BackgroundImageFix" result="effect1_dropShadow_7102_22147"/>
<feBlend mode="normal" in="SourceGraphic" in2="effect1_dropShadow_7102_22147" result="shape"/>
</filter>
<linearGradient id="paint0_linear_7102_22147" x1="111.694" y1="53.7399" x2="75" y2="53.7399" gradientUnits="userSpaceOnUse">
<stop offset="0.0677083" stop-color="#EFFDFF"/>
<stop offset="1" stop-color="#A9D6FF"/>
</linearGradient>
<linearGradient id="paint1_linear_7102_22147" x1="114.41" y1="53.7384" x2="149.583" y2="53.7384" gradientUnits="userSpaceOnUse">
<stop offset="0.0677083" stop-color="#EFFDFF"/>
<stop offset="1" stop-color="#A9D6FF"/>
</linearGradient>
</defs>
</svg>
