<svg width="224" height="159" viewBox="0 0 224 159" fill="none" xmlns="http://www.w3.org/2000/svg">
<path d="M0 103.422H7.53246L21.7469 134.42L35.9614 103.422H43.4939V145.741H36.2044V118.255L23.5693 145.741H19.9246L7.28948 118.255V145.741H0V103.422Z" fill="#12509B"/>
<path d="M66.6342 146.649C63.2324 146.649 60.2356 146.044 57.6438 144.833C55.0925 143.582 53.1081 141.806 51.6907 139.505C50.2733 137.164 49.5646 134.399 49.5646 131.211C49.5646 128.103 50.2531 125.399 51.63 123.098C53.0474 120.757 55.052 118.961 57.6438 117.71C60.2356 116.418 63.2324 115.772 66.6342 115.772C70.0359 115.772 73.0125 116.418 75.5638 117.71C78.1556 118.961 80.1602 120.757 81.5776 123.098C82.995 125.399 83.7037 128.103 83.7037 131.211C83.7037 134.399 82.995 137.164 81.5776 139.505C80.1602 141.806 78.1556 143.582 75.5638 144.833C73.0125 146.044 70.0359 146.649 66.6342 146.649ZM66.6342 140.656C69.4285 140.656 71.6558 139.788 73.3162 138.052C74.9766 136.276 75.8068 133.996 75.8068 131.211C75.8068 128.264 74.9766 125.964 73.3162 124.309C71.6963 122.614 69.469 121.766 66.6342 121.766C63.7994 121.766 61.5518 122.614 59.8914 124.309C58.2715 125.964 57.4616 128.264 57.4616 131.211C57.4616 133.996 58.2918 136.276 59.9521 138.052C61.6125 139.788 63.8399 140.656 66.6342 140.656Z" fill="#12509B"/>
<path d="M89.754 116.681H97.165V121.342C98.3394 119.768 99.9998 118.598 102.146 117.831C104.333 117.064 106.824 116.681 109.618 116.681V122.493C106.662 122.493 104.09 122.957 101.903 123.885C99.7568 124.773 98.2584 126.186 97.408 128.123V145.741H89.754V116.681Z" fill="#12509B"/>
<path d="M114.491 116.681H121.902V120.192C123.482 118.699 125.203 117.589 127.066 116.862C128.928 116.136 131.055 115.772 133.444 115.772C136.4 115.772 139.033 116.418 141.341 117.71C143.69 118.961 145.512 120.757 146.808 123.098C148.144 125.399 148.813 128.083 148.813 131.15C148.813 134.177 148.144 136.862 146.808 139.203C145.512 141.543 143.69 143.38 141.341 144.712C139.033 146.003 136.4 146.649 133.444 146.649C131.217 146.649 129.111 146.347 127.126 145.741C125.183 145.095 123.522 144.147 122.145 142.896V159H114.491V116.681ZM131.561 140.656C134.315 140.656 136.582 139.768 138.364 137.992C140.146 136.216 141.037 133.935 141.037 131.15C141.037 128.365 140.146 126.105 138.364 124.37C136.582 122.634 134.315 121.766 131.561 121.766C129.374 121.766 127.43 122.351 125.729 123.522C124.028 124.692 122.834 126.267 122.145 128.244V134.117C122.793 136.095 123.968 137.689 125.668 138.9C127.41 140.07 129.374 140.656 131.561 140.656Z" fill="#12509B"/>
<path d="M154.889 101H162.543V120.374C165.297 117.306 168.861 115.772 173.235 115.772C177.163 115.772 180.099 116.842 182.043 118.981C183.987 121.08 184.959 123.885 184.959 127.397V145.741H177.305V128.123C177.305 123.885 175.32 121.766 171.352 121.766C169.61 121.766 167.97 122.19 166.431 123.038C164.892 123.845 163.596 125.076 162.543 126.731V145.741H154.889V101Z" fill="#12509B"/>
<path d="M206.93 146.649C203.529 146.649 200.532 146.044 197.94 144.833C195.389 143.582 193.404 141.806 191.987 139.505C190.57 137.164 189.861 134.399 189.861 131.211C189.861 128.103 190.549 125.399 191.926 123.098C193.344 120.757 195.348 118.961 197.94 117.71C200.532 116.418 203.529 115.772 206.93 115.772C210.332 115.772 213.309 116.418 215.86 117.71C218.452 118.961 220.456 120.757 221.874 123.098C223.291 125.399 224 128.103 224 131.211C224 134.399 223.291 137.164 221.874 139.505C220.456 141.806 218.452 143.582 215.86 144.833C213.309 146.044 210.332 146.649 206.93 146.649ZM206.93 140.656C209.725 140.656 211.952 139.788 213.612 138.052C215.273 136.276 216.103 133.996 216.103 131.211C216.103 128.264 215.273 125.964 213.612 124.309C211.993 122.614 209.765 121.766 206.93 121.766C204.096 121.766 201.848 122.614 200.188 124.309C198.568 125.964 197.758 128.264 197.758 131.211C197.758 133.996 198.588 136.276 200.248 138.052C201.909 139.788 204.136 140.656 206.93 140.656Z" fill="#12509B"/>
<g opacity="0.9" filter="url(#filter0_d_7102_22151)">
<path d="M82.9773 53.9252V74.1616C82.9773 75.4073 84.0349 75.9244 84.364 76.0419C84.693 76.1829 85.7977 76.4884 86.7848 75.5718L104.107 58.9785C105.705 56.9102 106.293 55.6175 106.293 55.6175C107.233 53.7137 107.233 51.8805 106.316 50.0472C104.953 47.3208 101.474 44.5474 96.2332 41.915L87.2784 46.8978C84.6226 48.402 82.9773 51.0578 82.9773 53.9252Z" fill="#2E4A85"/>
</g>
<g filter="url(#filter1_d_7102_22151)">
<path d="M74 8.91642V30.1399C74 32.7958 75.7863 35.1461 78.3247 35.8982C86.9739 38.3896 102.039 43.7483 105.683 51.622C106.153 52.6561 106.435 53.6668 106.529 54.7244C108.95 50.3293 110.054 45.276 109.537 40.1523C108.832 32.8898 104.977 26.2854 98.9606 22.0783L77.502 7.10665C77.126 6.82461 76.6794 6.68359 76.2328 6.68359C75.8568 6.68359 75.5277 6.75411 75.1752 6.94213C74.4701 7.34169 74 8.0703 74 8.91642Z" fill="url(#paint0_linear_7102_22151)"/>
</g>
<g opacity="0.9" filter="url(#filter2_d_7102_22151)">
<path d="M141.009 53.9252V74.1616C141.009 75.4073 139.951 75.9244 139.622 76.0419C139.293 76.1829 138.189 76.4884 137.201 75.5718L119.879 58.9785C118.281 56.9102 117.694 55.6175 117.694 55.6175C116.754 53.7137 116.754 51.8805 117.67 50.0472C119.033 47.3208 122.512 44.5474 127.753 41.915L136.708 46.8978C139.387 48.402 141.009 51.0578 141.009 53.9252Z" fill="#183779"/>
</g>
<g filter="url(#filter3_d_7102_22151)">
<path d="M150 8.91447V30.138C150 32.7938 148.214 35.1442 145.675 35.8963C137.026 38.3876 121.961 43.7464 118.318 51.62C117.848 52.6541 117.565 53.6648 117.471 54.7225C115.051 50.3273 113.946 45.2741 114.463 40.1504C115.168 32.8878 119.023 26.2834 125.04 22.0763L146.498 7.1047C146.874 6.82266 147.321 6.68164 147.767 6.68164C148.143 6.68164 148.472 6.75215 148.825 6.94018C149.53 7.33974 150 8.06835 150 8.91447Z" fill="url(#paint1_linear_7102_22151)"/>
</g>
<defs>
<filter id="filter0_d_7102_22151" x="77.9773" y="37.915" width="36.0234" height="46.291" filterUnits="userSpaceOnUse" color-interpolation-filters="sRGB">
<feFlood flood-opacity="0" result="BackgroundImageFix"/>
<feColorMatrix in="SourceAlpha" type="matrix" values="0 0 0 0 0 0 0 0 0 0 0 0 0 0 0 0 0 0 127 0" result="hardAlpha"/>
<feOffset dx="1" dy="2"/>
<feGaussianBlur stdDeviation="3"/>
<feComposite in2="hardAlpha" operator="out"/>
<feColorMatrix type="matrix" values="0 0 0 0 0 0 0 0 0 0 0 0 0 0 0 0 0 0 0.22 0"/>
<feBlend mode="normal" in2="BackgroundImageFix" result="effect1_dropShadow_7102_22151"/>
<feBlend mode="normal" in="SourceGraphic" in2="effect1_dropShadow_7102_22151" result="shape"/>
</filter>
<filter id="filter1_d_7102_22151" x="64" y="0.683594" width="55.6621" height="68.041" filterUnits="userSpaceOnUse" color-interpolation-filters="sRGB">
<feFlood flood-opacity="0" result="BackgroundImageFix"/>
<feColorMatrix in="SourceAlpha" type="matrix" values="0 0 0 0 0 0 0 0 0 0 0 0 0 0 0 0 0 0 127 0" result="hardAlpha"/>
<feOffset dy="4"/>
<feGaussianBlur stdDeviation="5"/>
<feComposite in2="hardAlpha" operator="out"/>
<feColorMatrix type="matrix" values="0 0 0 0 0 0 0 0 0 0 0 0 0 0 0 0 0 0 0.2 0"/>
<feBlend mode="normal" in2="BackgroundImageFix" result="effect1_dropShadow_7102_22151"/>
<feBlend mode="normal" in="SourceGraphic" in2="effect1_dropShadow_7102_22151" result="shape"/>
</filter>
<filter id="filter2_d_7102_22151" x="111.986" y="37.915" width="36.0234" height="46.291" filterUnits="userSpaceOnUse" color-interpolation-filters="sRGB">
<feFlood flood-opacity="0" result="BackgroundImageFix"/>
<feColorMatrix in="SourceAlpha" type="matrix" values="0 0 0 0 0 0 0 0 0 0 0 0 0 0 0 0 0 0 127 0" result="hardAlpha"/>
<feOffset dx="1" dy="2"/>
<feGaussianBlur stdDeviation="3"/>
<feComposite in2="hardAlpha" operator="out"/>
<feColorMatrix type="matrix" values="0 0 0 0 0 0 0 0 0 0 0 0 0 0 0 0 0 0 0.22 0"/>
<feBlend mode="normal" in2="BackgroundImageFix" result="effect1_dropShadow_7102_22151"/>
<feBlend mode="normal" in="SourceGraphic" in2="effect1_dropShadow_7102_22151" result="shape"/>
</filter>
<filter id="filter3_d_7102_22151" x="104.338" y="0.681641" width="55.6619" height="68.041" filterUnits="userSpaceOnUse" color-interpolation-filters="sRGB">
<feFlood flood-opacity="0" result="BackgroundImageFix"/>
<feColorMatrix in="SourceAlpha" type="matrix" values="0 0 0 0 0 0 0 0 0 0 0 0 0 0 0 0 0 0 127 0" result="hardAlpha"/>
<feOffset dy="4"/>
<feGaussianBlur stdDeviation="5"/>
<feComposite in2="hardAlpha" operator="out"/>
<feColorMatrix type="matrix" values="0 0 0 0 0 0 0 0 0 0 0 0 0 0 0 0 0 0 0.2 0"/>
<feBlend mode="normal" in2="BackgroundImageFix" result="effect1_dropShadow_7102_22151"/>
<feBlend mode="normal" in="SourceGraphic" in2="effect1_dropShadow_7102_22151" result="shape"/>
</filter>
<linearGradient id="paint0_linear_7102_22151" x1="74.0998" y1="54.4158" x2="109.38" y2="54.4158" gradientUnits="userSpaceOnUse">
<stop stop-color="#1E245C"/>
<stop offset="0.932292" stop-color="#0094FF"/>
</linearGradient>
<linearGradient id="paint1_linear_7102_22151" x1="114.438" y1="54.4138" x2="149.718" y2="54.4138" gradientUnits="userSpaceOnUse">
<stop offset="0.0520833" stop-color="#0094FF"/>
<stop offset="1" stop-color="#1E245C"/>
</linearGradient>
</defs>
</svg>
